<svg width="24" height="27" viewBox="0 0 24 27" fill="none" xmlns="http://www.w3.org/2000/svg">
<path fill-rule="evenodd" clip-rule="evenodd" d="M12.0345 4.73035H12.0345C14.701 4.73035 17.307 6.37794 18.6984 9.0609C18.7798 9.21786 18.9399 9.31995 19.1167 9.31995H23.1042C23.4119 9.31995 23.6323 9.02287 23.5306 8.73251C21.7722 3.71052 17.2883 0.140695 12.0345 0.140695L4.58966 0.14065L0.458968 0.140625C0.205488 0.140623 0 0.34611 0 0.59959V4.73028V8.86098C0 9.11446 0.205486 9.31995 0.458966 9.31995H4.13069C4.38417 9.31995 4.58966 9.11446 4.58966 8.86098V5.18927C4.58966 4.93579 4.79514 4.73031 5.04862 4.73031L12.0345 4.73035ZM4.58966 17.5813C4.58966 17.3278 4.38417 17.1224 4.13069 17.1224H0.458966C0.205486 17.1224 0 17.3278 0 17.5813V26.3016C0 26.5551 0.205486 26.7606 0.458966 26.7606H4.58966L12.0345 26.7606C17.4519 26.7606 22.0507 22.965 23.6869 17.6954C23.7762 17.4078 23.5566 17.1224 23.2554 17.1224H19.3387C19.1526 17.1224 18.9858 17.2353 18.9093 17.405C17.5831 20.344 14.8424 22.171 12.0345 22.171L5.04862 22.1709C4.79514 22.1709 4.58966 21.9655 4.58966 21.712V17.5813Z" fill="url(#paint0_linear_7341_34124)"/>
<path d="M14.2551 15.3483C14.2298 15.3483 14.2092 15.3277 14.2092 15.3024V10.9736C14.2092 10.9483 14.2298 10.9277 14.2551 10.9277H15.4143C16.9039 10.9277 17.7517 11.8845 17.7517 13.138C17.7517 14.3975 16.7949 15.3483 15.4506 15.3483H14.2551ZM15.3174 11.6907H15.0787C15.0533 11.6907 15.0328 11.7113 15.0328 11.7366V14.5394C15.0328 14.5647 15.0533 14.5853 15.0787 14.5853H15.3537C16.3226 14.5853 16.9282 13.9616 16.9282 13.138C16.9282 12.2902 16.4134 11.6907 15.3174 11.6907Z" fill="white"/>
<path fill-rule="evenodd" clip-rule="evenodd" d="M14.3237 11.042V15.233H15.4504C16.7346 15.233 17.6367 14.3304 17.6367 13.1375C17.6367 12.537 17.4341 12.0151 17.0605 11.6437C16.6872 11.2725 16.1336 11.042 15.414 11.042H14.3237ZM14.0942 10.9731C14.0942 10.8844 14.1662 10.8125 14.2549 10.8125H15.414C16.1841 10.8125 16.7993 11.0604 17.2223 11.4809C17.645 11.9012 17.8662 12.4846 17.8662 13.1375C17.8662 14.4637 16.8548 15.4625 15.4504 15.4625H14.2549C14.1662 15.4625 14.0942 15.3906 14.0942 15.3019V10.9731ZM14.9178 11.7361C14.9178 11.6474 14.9897 11.5755 15.0784 11.5755H15.3171C15.8856 11.5755 16.3202 11.7312 16.6131 12.0133C16.9064 12.2957 17.0426 12.6904 17.0426 13.1375C17.0426 13.5783 16.88 13.971 16.583 14.2532C16.2862 14.5351 15.8629 14.6995 15.3535 14.6995H15.0784C14.9897 14.6995 14.9178 14.6276 14.9178 14.5389V11.7361ZM15.1473 11.805V14.47H15.3535C15.8129 14.47 16.1768 14.3226 16.425 14.0868C16.673 13.8512 16.8132 13.5202 16.8132 13.1375C16.8132 12.7369 16.692 12.4079 16.454 12.1786C16.2155 11.949 15.8447 11.805 15.3171 11.805H15.1473Z" fill="white"/>
<path d="M12.605 15.3483C12.5796 15.3483 12.5591 15.3277 12.5591 15.3024V10.9736C12.5591 10.9483 12.5796 10.9277 12.605 10.9277H13.3367C13.3621 10.9277 13.3826 10.9483 13.3826 10.9736V15.3024C13.3826 15.3277 13.3621 15.3483 13.3367 15.3483H12.605Z" fill="white"/>
<path fill-rule="evenodd" clip-rule="evenodd" d="M12.6638 11.042V15.233H13.2579V11.042H12.6638ZM12.4343 10.9731C12.4343 10.8844 12.5062 10.8125 12.595 10.8125H13.3267C13.4154 10.8125 13.4874 10.8844 13.4874 10.9731V15.3019C13.4874 15.3906 13.4154 15.4625 13.3267 15.4625H12.595C12.5062 15.4625 12.4343 15.3906 12.4343 15.3019V10.9731Z" fill="white"/>
<path d="M9.71565 15.4088C8.35315 15.4088 7.44482 14.3976 7.44482 13.138C7.44482 11.8179 8.43793 10.8672 9.71565 10.8672C10.5293 10.8672 11.238 11.2865 11.6306 11.9253C11.6436 11.9464 11.637 11.9737 11.6162 11.987L10.9736 12.3974C10.9514 12.4116 10.922 12.4042 10.9085 12.3816C10.6488 11.946 10.2733 11.6786 9.71565 11.6786C8.87393 11.6786 8.26232 12.3145 8.26232 13.138C8.26232 13.9434 8.87393 14.5853 9.69748 14.5853C10.2912 14.5853 10.708 14.26 10.9479 13.7979C10.9598 13.7749 10.9881 13.7656 11.011 13.7776L11.6796 14.1281C11.702 14.1398 11.7107 14.1674 11.6987 14.1896C11.3056 14.9183 10.5719 15.4088 9.71565 15.4088Z" fill="white"/>
<path fill-rule="evenodd" clip-rule="evenodd" d="M9.71857 10.9814C8.50281 10.9814 7.56249 11.8822 7.56249 13.1375C7.56249 14.3372 8.42287 15.2936 9.71857 15.2936C10.5044 15.2936 11.1839 14.8572 11.5663 14.1962L11.0203 13.91C10.7593 14.3719 10.318 14.6995 9.7004 14.6995C8.81128 14.6995 8.1505 14.004 8.1505 13.1375C8.1505 12.2522 8.81191 11.5634 9.71857 11.5634C10.2968 11.5634 10.6972 11.8329 10.9732 12.2629L11.499 11.9271C11.1204 11.3544 10.4669 10.9814 9.71857 10.9814ZM7.33301 13.1375C7.33301 11.7526 8.3789 10.752 9.71857 10.752C10.5726 10.752 11.3181 11.1925 11.7313 11.8648C11.7778 11.9403 11.7532 12.037 11.6808 12.0832L11.0383 12.4936C10.9601 12.5436 10.8586 12.5166 10.8129 12.4398C10.5704 12.0332 10.2294 11.7929 9.71857 11.7929C8.94179 11.7929 8.37999 12.3758 8.37999 13.1375C8.37999 13.8818 8.94243 14.47 9.7004 14.47C10.2439 14.47 10.6252 14.1757 10.849 13.7445C10.8893 13.6669 10.9863 13.6331 11.0672 13.6755L11.7358 14.026C11.8137 14.0668 11.8455 14.1641 11.8026 14.2436C11.3915 15.0057 10.6212 15.5231 9.71857 15.5231C8.28929 15.5231 7.33301 14.457 7.33301 13.1375Z" fill="white"/>
<path d="M5.02083 15.4088C4.10039 15.4088 3.42822 14.8578 3.42822 13.8223V10.9736C3.42822 10.9483 3.44877 10.9277 3.47412 10.9277H4.20588C4.23122 10.9277 4.25177 10.9483 4.25177 10.9736V13.8707C4.25177 14.3067 4.57877 14.6458 5.01477 14.6458C5.44471 14.6458 5.78988 14.3067 5.78988 13.8707V10.9736C5.78988 10.9483 5.81043 10.9277 5.83577 10.9277H6.56753C6.59288 10.9277 6.61343 10.9483 6.61343 10.9736V13.8223C6.61343 14.8578 5.93521 15.4088 5.02083 15.4088Z" fill="white"/>
<path fill-rule="evenodd" clip-rule="evenodd" d="M3.53271 11.042V13.8218C3.53271 14.3137 3.6916 14.6781 3.94786 14.9199C4.20518 15.1628 4.57283 15.2936 5.01057 15.2936C5.44512 15.2936 5.81291 15.1629 6.07111 14.9198C6.32821 14.6778 6.48843 14.3134 6.48843 13.8218V11.042H5.89436V13.8702C5.89436 14.3702 5.49724 14.7601 5.00451 14.7601C4.50278 14.7601 4.12677 14.3672 4.12677 13.8702V11.042H3.53271ZM3.30322 10.9731C3.30322 10.8844 3.37514 10.8125 3.46386 10.8125H4.19562C4.28434 10.8125 4.35626 10.8844 4.35626 10.9731V13.8702C4.35626 14.2452 4.63425 14.5306 5.00451 14.5306C5.37167 14.5306 5.66488 14.2423 5.66488 13.8702V10.9731C5.66488 10.8844 5.7368 10.8125 5.82551 10.8125H6.55727C6.64599 10.8125 6.71791 10.8844 6.71791 10.9731V13.8218C6.71791 14.3657 6.53902 14.7945 6.22841 15.0869C5.91891 15.3783 5.4904 15.5231 5.01057 15.5231C4.52786 15.5231 4.09921 15.3783 3.79034 15.0868C3.48041 14.7943 3.30322 14.3654 3.30322 13.8218V10.9731Z" fill="white"/>
<path d="M0.190672 15.3483C0.165324 15.3483 0.144775 15.3277 0.144775 15.3024V10.9736C0.144775 10.9483 0.165324 10.9277 0.190672 10.9277H0.92243C0.947778 10.9277 0.968327 10.9483 0.968327 10.9736V14.5152C0.968327 14.5405 0.988875 14.561 1.01422 14.561H2.53925C2.5646 14.561 2.58515 14.5816 2.58515 14.6069V15.3024C2.58515 15.3277 2.5646 15.3483 2.53925 15.3483H0.190672Z" fill="white"/>
<path fill-rule="evenodd" clip-rule="evenodd" d="M0.262442 11.042V15.233H2.47333V14.6753H1.01715C0.92843 14.6753 0.85651 14.6034 0.85651 14.5147V11.042H0.262442ZM0.032959 10.9731C0.032959 10.8844 0.104878 10.8125 0.193597 10.8125H0.925355C1.01407 10.8125 1.08599 10.8844 1.08599 10.9731V14.4458H2.54218C2.6309 14.4458 2.70282 14.5177 2.70282 14.6065V15.3019C2.70282 15.3906 2.6309 15.4625 2.54218 15.4625H0.193597C0.104879 15.4625 0.032959 15.3906 0.032959 15.3019V10.9731Z" fill="white"/>
<path fill-rule="evenodd" clip-rule="evenodd" d="M20.7317 10.6758C20.643 10.6758 20.5711 10.7477 20.5711 10.8364V12.3244H18.9712C18.8825 12.3244 18.8105 12.3963 18.8105 12.485V13.7884C18.8105 13.8772 18.8825 13.9491 18.9712 13.9491H20.5711V15.5324C20.5711 15.6211 20.643 15.693 20.7317 15.693H22.0079C22.0966 15.693 22.1685 15.6211 22.1685 15.5324V13.9491H23.7626C23.8513 13.9491 23.9233 13.8772 23.9233 13.7884V12.485C23.9233 12.3963 23.8513 12.3244 23.7626 12.3244H22.1685V10.8364C22.1685 10.7477 22.0966 10.6758 22.0079 10.6758H20.7317Z" fill="url(#paint1_linear_7341_34124)"/>
<defs>
<linearGradient id="paint0_linear_7341_34124" x1="16.7391" y1="1.16447" x2="-2.26702" y2="29.1586" gradientUnits="userSpaceOnUse">
<stop offset="0.55" stop-color="white" stop-opacity="0.95"/>
<stop offset="1" stop-color="white" stop-opacity="0.75"/>
</linearGradient>
<linearGradient id="paint1_linear_7341_34124" x1="22.4205" y1="10.8688" x2="19.0378" y2="16.5699" gradientUnits="userSpaceOnUse">
<stop offset="0.55" stop-color="white" stop-opacity="0.95"/>
<stop offset="1" stop-color="white" stop-opacity="0.75"/>
</linearGradient>
</defs>
</svg>
